<?xml version="1.0" encoding="UTF-8" standalone="no"?>
<!DOCTYPE svg PUBLIC "-//W3C//DTD SVG 1.1//EN" "http://www.w3.org/Graphics/SVG/1.1/DTD/svg11.dtd">
<svg width="100%" height="100%" viewBox="0 0 396 445" version="1.1" xmlns="http://www.w3.org/2000/svg" xmlns:xlink="http://www.w3.org/1999/xlink" xml:space="preserve" xmlns:serif="http://www.serif.com/" style="fill-rule:evenodd;clip-rule:evenodd;stroke-linejoin:round;stroke-miterlimit:1.41421;">
    <g id="Vectorportal.com" transform="matrix(1,0,0,1,-27.0325,0.000379564)">
        <g transform="matrix(1,0,0,1,247.83,417.642)">
            <path d="M0,-148.138L109.939,-32.476C112.02,-29.772 111.516,-25.891 108.812,-23.811C106.107,-21.729 102.227,-22.233 100.146,-24.937L-7.605,-136.675C-12.722,-132.93 -20.084,-130.089 -28.73,-128.597L-20.111,20.776C-20.225,24.18 -23.074,26.849 -26.478,26.736C-29.88,26.624 -32.549,23.774 -32.436,20.371L-40.959,-127.447C-42.787,-127.409 -44.645,-127.425 -46.527,-127.502C-63.107,-128.177 -77.437,-133.269 -85.155,-140.326L-210.045,-32.588C-212.339,-30.063 -216.249,-29.873 -218.774,-32.167C-221.299,-34.463 -221.487,-38.371 -219.192,-40.897L-91.197,-152.939C-90.316,-165.596 -69.614,-174.987 -44.636,-173.968C-19.431,-172.942 0.579,-161.707 0.055,-148.876C0.046,-148.629 0.026,-148.382 0,-148.138" style="fill:rgb(239,70,35);"/>
        </g>
        <g>
            <g transform="matrix(1,0,0,1,122.175,322.455)">
                <path d="M0,-310.056C34.141,-343.852 126.219,-306.189 205.661,-225.934C285.104,-145.679 321.826,-53.222 287.685,-19.426C233.918,33.796 125.931,11.882 46.489,-68.375C-32.954,-148.629 -53.767,-256.833 0,-310.056" style="fill:rgb(233,242,251);"/>
            </g>
            <g transform="matrix(1,0,0,1,421.952,325.754)">
                <path d="M0,-69.535C2.337,-49.634 -1.405,-33.305 -12.093,-22.724C-65.859,30.497 -173.847,8.583 -253.288,-71.674C-262.327,-80.804 -270.598,-90.299 -278.095,-100.032C-180.402,-22.351 -65.318,-4.314 -6.312,-62.723C-4.1,-64.912 -2.001,-67.189 0,-69.535" style="fill:rgb(207,219,233);"/>
            </g>
            <g transform="matrix(1,0,0,1,131.02,290.323)">
                <path d="M0,-272.799C-30.786,-242.326 4.706,-156.553 79.275,-81.223C153.843,-5.89 239.249,30.474 270.033,0C300.82,-30.474 265.326,-116.244 190.759,-191.577C116.191,-266.908 30.785,-303.273 0,-272.799" style="fill:rgb(163,184,204);"/>
            </g>
            <g transform="matrix(1,0,0,1,214.776,147.137)">
                <path d="M0,66.424C73.478,138.715 156.107,173.051 186.277,143.186C217.064,112.712 181.57,26.942 107.003,-48.391C83.762,-71.87 59.467,-91.563 36.101,-106.627C-2.374,-58.614 -14.11,5.058 0,66.424" style="fill:rgb(149,173,196);"/>
            </g>
            <g transform="matrix(1,0,0,1,131.02,218.668)">
                <path d="M0,-201.144C-15.15,-186.149 -14.241,-157.762 -0.535,-123.82C4.48,-118.348 9.657,-112.902 15.003,-107.5C107.114,-14.446 212.614,30.475 250.643,-7.17C255.648,-12.125 259.223,-18.274 261.468,-25.415C245.927,-55.582 221.714,-88.65 190.759,-119.922C116.191,-195.253 30.785,-231.619 0,-201.144" style="fill:rgb(183,198,213);"/>
            </g>
            <g transform="matrix(1,0,0,1,209.035,115.154)">
                <path d="M0,50.91C72.982,105.042 143.119,125.554 172.628,96.344C177.634,91.389 181.208,85.24 183.453,78.099C167.912,47.932 143.699,14.864 112.744,-16.408C89.503,-39.887 65.208,-59.58 41.842,-74.644C13.264,-38.98 -0.56,5.327 0,50.91" style="fill:rgb(163,184,204);"/>
            </g>
            <g transform="matrix(1,0,0,1,362.266,63.4599)">
                <path d="M0,255.186C-45.416,258.815 -112.418,226.005 -170.288,167.543C-228.159,109.081 -260.283,41.748 -256.191,-3.629C-257.004,40.525 -223.512,105.765 -166.283,163.579C-109.055,221.393 -44.16,255.548 0,255.186" style="fill:white;"/>
            </g>
            <g transform="matrix(1,0,0,1,217.772,154.55)">
                <path d="M0,18.375L51.035,-32.145L79.811,-3.076L28.773,47.444C25.666,50.52 16.705,46.507 8.761,38.479C0.814,30.453 -3.108,21.452 0,18.375" style="fill:rgb(203,57,38);"/>
            </g>
            <g transform="matrix(1,0,0,1,268.809,151.474)">
                <path d="M0,-29.069C3.107,-32.145 12.067,-28.132 20.014,-20.104C27.959,-12.077 31.882,-3.076 28.774,0C25.667,3.076 16.705,-0.938 8.76,-8.965C0.813,-16.991 -3.108,-25.992 0,-29.069" style="fill:rgb(243,112,69);"/>
            </g>
            <g transform="matrix(1,0,0,1,346.624,200.285)">
                <path d="M0,-73.987L1.33,55.556C1.069,58.314 -1.377,60.341 -4.135,60.081C-6.893,59.821 -8.919,57.374 -8.659,54.618L-10.859,-71.385C-15.972,-71.989 -21.918,-74.375 -27.88,-78.272L-105.401,15.245C-107.351,17.205 -110.52,17.213 -112.479,15.264C-114.439,13.314 -114.447,10.147 -112.499,8.185L-35.783,-84.355C-36.89,-85.343 -37.983,-86.381 -39.061,-87.468C-48.537,-97.042 -54.234,-107.995 -54.914,-116.459L-188.725,-121.543C-191.484,-121.31 -193.911,-123.361 -194.143,-126.122C-194.373,-128.883 -192.323,-131.308 -189.562,-131.539L-51.526,-127.295C-44.001,-134.328 -26.506,-128.453 -12.229,-114.029C2.179,-99.474 7.852,-81.73 0.441,-74.395C0.299,-74.254 0.151,-74.118 0,-73.987" style="fill:rgb(233,242,251);"/>
            </g>
            <g transform="matrix(1,0,0,1,313.25,105.834)">
                <path d="M0,-24.027C3.159,-27.154 11.045,-24.311 17.612,-17.676C24.18,-11.042 26.943,-3.128 23.783,0C20.624,3.127 12.738,0.284 6.171,-6.352C-0.396,-12.986 -3.159,-20.901 0,-24.027" style="fill:rgb(243,112,69);"/>
            </g>
            <g transform="matrix(1,0,0,1,371.077,101.943)">
                <path d="M0,-53.594L-37.27,-4.573C-40.748,0 -54.007,-13.394 -49.397,-16.824L0,-53.594Z" style="fill:rgb(203,57,38);"/>
            </g>
        </g>
    </g>
</svg>
