<?xml version="1.0" encoding="utf-8"?>
<!-- Generator: Adobe Illustrator 19.1.0, SVG Export Plug-In . SVG Version: 6.00 Build 0)  -->
<svg version="1.1" id="Layer_1" xmlns="http://www.w3.org/2000/svg" xmlns:xlink="http://www.w3.org/1999/xlink" x="0px" y="0px"
	 viewBox="-102 108 93.3 86" style="enable-background:new -102 108 93.3 86;" xml:space="preserve">
<style type="text/css">
	.st0{fill:#FFFFFF;}
	.st1{fill:#FFFFFF;}
</style>
<g>
	<path class="st0" d="M-20.4,124.2c0,0-62.3-34.4-78,43.8c0,0,16.6-54.2,62.2-39.8l-8.6,14.9L-62.4,133l-4.9,8.5l17.6,10.2l8.5,4.9
		l4.9-8.5l9.4-16.1c0.5,0.3,1.1,0.5,1.6,0.8L-20.4,124.2z"/>
	<path class="st1" d="M-90.3,177.3c0,0,62.3,34.4,78-43.8c0,0-16.6,54.2-62.2,39.8l8.6-14.9l17.6,10.2l4.9-8.5L-61,149.8l-8.5-4.9
		l-4.9,8.5l-9.3,16.2c-0.5-0.3-1.1-0.5-1.6-0.8L-90.3,177.3z"/>
</g>
</svg>
