<?xml version="1.0" encoding="UTF-8" standalone="no"?>
<!DOCTYPE svg PUBLIC "-//W3C//DTD SVG 1.1//EN" "http://www.w3.org/Graphics/SVG/1.1/DTD/svg11.dtd">
<svg width="100%" height="100%" viewBox="0 0 95 74" version="1.1" xmlns="http://www.w3.org/2000/svg" xmlns:xlink="http://www.w3.org/1999/xlink" xml:space="preserve" style="fill-rule:evenodd;clip-rule:evenodd;stroke-linejoin:round;stroke-miterlimit:1.41421;">
    <g id="SpaceShip" transform="matrix(1,0,0,1,-710.675,-516.73)">
        <g transform="matrix(-0.540464,-6.61877e-17,1.02499e-16,-0.836971,1247.62,983.401)">
            <path d="M905.631,476.342C910.753,476.2 915.921,478.082 919.827,481.987L947.386,509.546C953.019,515.18 954.443,523.439 951.657,530.399C951.173,530.333 950.68,530.299 950.178,530.299C934.719,521.399 919.874,516.929 905.631,516.79C891.388,516.929 876.543,521.399 861.084,530.299C860.582,530.299 860.089,530.333 859.605,530.399C856.819,523.439 858.242,515.18 863.876,509.546L891.435,481.987C895.341,478.082 900.509,476.2 905.631,476.342Z" style="fill:rgb(35,150,251);"/>
        </g>
        <g transform="matrix(-0.40638,-4.97672e-17,4.95044e-17,-0.404234,1126.19,772.646)">
            <path d="M905.631,476.342C910.753,476.2 915.921,478.082 919.827,481.987L947.386,509.546C953.019,515.18 954.443,523.439 951.657,530.399C951.173,530.333 950.68,530.299 950.178,530.299C934.719,521.399 919.874,516.929 905.631,516.79C891.388,516.929 876.543,521.399 861.084,530.299C860.582,530.299 860.089,530.333 859.605,530.399C856.819,523.439 858.242,515.18 863.876,509.546L891.435,481.987C895.341,478.082 900.509,476.2 905.631,476.342Z" style="fill:rgb(35,118,207);"/>
        </g>
        <g transform="matrix(1,0,0,1,-159.084,-57.031)">
            <path d="M917.245,588.693C922.393,588.53 927.593,590.411 931.518,594.337L959.077,621.896C964.711,627.529 966.134,635.788 963.348,642.748C962.864,642.682 962.371,642.648 961.869,642.648C946.382,633.732 931.512,629.262 917.245,629.138C902.979,629.262 888.108,633.732 872.621,642.648C872.119,642.648 871.626,642.682 871.142,642.748C868.356,635.788 869.78,627.529 875.413,621.896L902.972,594.337C906.897,590.411 912.098,588.53 917.245,588.693Z" style="fill:rgb(35,150,251);"/>
        </g>
        <g transform="matrix(0.853963,0,0,0.781712,-25.1326,79.4619)">
            <path d="M917.245,588.693C922.393,588.53 927.593,590.411 931.518,594.337L959.077,621.896C964.711,627.529 966.134,635.788 963.348,642.748C962.864,642.682 962.371,642.648 961.869,642.648C946.382,633.732 931.512,629.262 917.245,629.138C902.979,629.262 888.108,633.732 872.621,642.648C872.119,642.648 871.626,642.682 871.142,642.748C868.356,635.788 869.78,627.529 875.413,621.896L902.972,594.337C906.897,590.411 912.098,588.53 917.245,588.693Z" style="fill:rgb(35,118,207);"/>
        </g>
        <g transform="matrix(0.63681,0,0,1.29995,174.171,-159.482)">
            <g transform="matrix(1,0,0,1,10.166,133.305)">
                <path d="M907.157,429.793C892.822,429.872 877.877,434.342 862.309,443.304C861.807,443.304 861.313,443.338 860.83,443.404C858.043,436.444 859.467,428.185 865.1,422.552L892.659,394.993C896.642,391.01 901.936,389.132 907.157,389.358L907.157,429.793Z" style="fill:rgb(200,225,250);"/>
            </g>
            <g transform="matrix(-1,0,0,1,1823.94,133.305)">
                <path d="M907.157,429.793C892.822,429.872 877.877,434.342 862.309,443.304C861.807,443.304 861.313,443.338 860.83,443.404C858.043,436.444 859.467,428.185 865.1,422.552L892.659,394.993C896.642,391.01 901.936,389.132 907.157,389.358L907.157,429.793Z" style="fill:rgb(166,210,255);"/>
            </g>
            <g transform="matrix(1,0,0,1,-15.2441,68.1546)">
                <path d="M932.005,467.207L932.005,454.205C937.226,453.98 942.52,455.858 946.503,459.841L974.062,487.4C979.695,493.033 981.119,501.292 978.333,508.252C978.172,508.23 978.011,508.212 977.849,508.197C976.943,505.351 975.362,502.675 973.107,500.419L945.548,472.86C941.808,469.12 936.911,467.236 932.005,467.207Z" style="fill:rgb(113,185,252);"/>
            </g>
        </g>
        <g transform="matrix(1,0,0,1,-145.574,-31.622)">
            <path d="M904.037,597.429C903.762,597.486 903.483,597.514 903.201,597.514C898.83,597.514 895.282,590.617 895.282,582.121C895.282,573.625 898.83,566.728 903.201,566.728C903.483,566.728 903.762,566.756 904.037,566.813L904.037,597.429Z" style="fill:rgb(113,185,252);"/>
        </g>
        <g transform="matrix(-1,-1.22465e-16,1.22465e-16,-1,1661.9,1132.65)">
            <path d="M904.037,597.429C903.762,597.486 903.483,597.514 903.201,597.514C898.83,597.514 895.282,590.617 895.282,582.121C895.282,573.625 898.83,566.728 903.201,566.728C903.483,566.728 903.762,566.756 904.037,566.813L904.037,597.429Z" style="fill:rgb(106,152,208);"/>
        </g>
        <g transform="matrix(0.517597,0,0,3.41572,369.657,-1360.98)">
            <path d="M752.563,549.875C752.563,549.792 752.121,549.726 751.577,549.726L749.605,549.726C749.061,549.726 748.619,549.792 748.619,549.875L748.619,563.007C748.619,563.09 749.061,563.157 749.605,563.157L751.577,563.157C752.121,563.157 752.563,563.09 752.563,563.007L752.563,549.875Z" style="fill:rgb(35,118,207);"/>
        </g>
        <g transform="matrix(0.832446,0,0,0.871624,-10.0998,43.6314)">
            <ellipse cx="922.895" cy="582.687" rx="7.982" ry="14.211" style="fill:rgb(30,72,140);"/>
        </g>
    </g>
</svg>
